<mxfile host="app.diagrams.net" modified="2024-01-28T08:40:04.601Z" agent="Mozilla/5.0 (Windows NT 10.0; Win64; x64) AppleWebKit/537.36 (KHTML, like Gecko) Chrome/121.0.0.0 Safari/537.36 Edg/121.0.0.0" version="23.0.2" etag="nxBj9q0Qo4mNTiQUwt0-" type="github">
  <diagram name="第 1 页" id="nWI1ef90LPpD5L_km402">
    <mxGraphModel>
      <root>
        <mxCell id="0" />
        <mxCell id="1" parent="0" />
      </root>
    </mxGraphModel>
  </diagram>
</mxfile>
